<?xml version="1.0" encoding="iso-8859-1"?>
<!-- Generator: Adobe Illustrator 19.0.0, SVG Export Plug-In . SVG Version: 6.00 Build 0)  -->
<svg version="1.1" id="Capa_1" xmlns="http://www.w3.org/2000/svg" xmlns:xlink="http://www.w3.org/1999/xlink" x="0px" y="0px"
	 viewBox="0 0 512 512" style="enable-background:new 0 0 512 512;" xml:space="preserve">
<path style="fill:#F99400;" d="M512,256c0,136.777-107.269,248.508-242.27,255.634c-4.545,0.24-9.122,0.366-13.73,0.366
	c-13.458,0-26.666-1.034-39.56-3.041c-11.201-1.735-22.152-4.19-32.81-7.335c-17.063-5.016-33.374-11.755-48.744-20.031
	c-30.344-16.321-57.01-38.588-78.451-65.243c-4.315-5.35-8.411-10.888-12.288-16.593C16.28,358.776,0,309.29,0,256
	C0,114.615,114.615,0,256,0S512,114.615,512,256z"/>
<path style="fill:#F0EFEB;" d="M442.055,176.421c-6.092-16.259-17.147-30.365-33.186-42.371c-9.3-6.959-21.462-13.197-35.913-18.871
	l15.997-61.482L338.39,40.532l-15.464,59.402l-32.507-8.453l15.454-59.402L255.31,18.913l-15.464,59.402l-107.342-27.94
	l-13.009,49.988l14.221,3.709c9.467,2.456,15.684,5.005,18.62,7.607c2.894,2.591,4.671,5.548,5.277,8.84
	c0.658,3.302-0.47,10.282-3.25,20.992L101.92,342.978c-2.738,10.522-5.193,17.136-7.356,19.79c-2.163,2.685-5.12,4.389-8.923,5.151
	c-3.814,0.752-15.109-1.296-24.576-3.751l-16.917,35.589c3.877,5.705,7.973,11.243,12.288,16.593l89.381,23.259l-10.93,41.984
	c15.37,8.276,31.681,15.015,48.744,20.031l12.716-48.859l31.41,8.182c0.366,0.084,0.742,0.157,1.108,0.251l-12.424,47.762
	C229.334,510.966,242.542,512,256,512c4.608,0,9.185-0.125,13.73-0.366l10.47-40.218c16.896,2.132,31.441,2.456,43.541,0.909
	c23.312-2.967,42.872-11.013,58.619-24.168c15.757-13.124,26.133-29.278,31.128-48.462c4.138-16.029,4.106-31.556-0.073-46.582
	c-4.2-14.973-11.818-27.836-22.894-38.431c-7.586-7.492-19.32-15.642-35.098-24.315c17.178-1.264,31.587-4.744,43.384-10.428
	c11.713-5.716,21.535-13.239,29.466-22.643c7.868-9.362,13.396-20.02,16.488-31.932C449.034,208.98,448.115,192.658,442.055,176.421
	z M322.173,365.787c-3.25,12.57-9.603,22.423-18.986,29.581c-9.404,7.116-19.529,10.815-30.344,11.045
	c-10.804,0.23-23.886-1.63-39.215-5.622l-26.363-6.865c-8.808-2.288-14.033-4.169-15.778-5.632
	c-1.735-1.484-2.706-3.511-2.957-6.165c-0.219-2.1,1.045-8.631,3.751-19.769l20.355-78.211l46.738,12.163
	c20.522,5.35,35.265,11.222,44.283,17.617c8.997,6.374,15.036,13.96,18.098,22.685C324.817,345.36,324.963,355.067,322.173,365.787z
	 M353.687,216.106c-2.372,9.143-6.98,16.562-13.824,22.246c-6.813,5.705-15.653,8.986-26.467,9.843
	c-10.825,0.867-26.593-1.379-47.323-6.771l-39.602-10.313l22.925-88.085l39.602,10.303c23.155,6.029,38.828,11.64,47.062,16.823
	c8.223,5.183,13.824,11.786,16.844,19.728C355.882,197.851,356.174,206.587,353.687,216.106z"/>
<g>
</g>
<g>
</g>
<g>
</g>
<g>
</g>
<g>
</g>
<g>
</g>
<g>
</g>
<g>
</g>
<g>
</g>
<g>
</g>
<g>
</g>
<g>
</g>
<g>
</g>
<g>
</g>
<g>
</g>
</svg>
