<?xml version="1.0" encoding="UTF-8"?>
<svg width="1246px" height="195px" viewBox="0 0 1246 195" version="1.1" xmlns="http://www.w3.org/2000/svg" xmlns:xlink="http://www.w3.org/1999/xlink">
    <!-- Generator: Sketch 60.1 (88133) - https://sketch.com -->
    <title>Group</title>
    <desc>Created with Sketch.</desc>
    <defs>
        <linearGradient x1="0%" y1="0%" x2="0%" y2="100%" id="linearGradient-1">
            <stop stop-color="#F9AA4B" offset="0%"></stop>
            <stop stop-color="#F7931A" offset="100%"></stop>
        </linearGradient>
    </defs>
    <g id="Page-1" stroke="none" stroke-width="1" fill="none" fill-rule="evenodd">
        <g id="v3.1" transform="translate(-103.000000, -592.000000)" fill-rule="nonzero">
            <g id="Group" transform="translate(103.000000, 592.000000)">
                <path d="M246.4,159.8 C254.8,159.8 262,158.8 268,156.8 C274,154.8 278.933333,152.2 282.8,149 C286.666667,145.8 289.5,142.133333 291.3,138 C293.1,133.866667 294,129.666667 294,125.4 C294,121.266667 293.533333,117.666667 292.6,114.6 C291.666667,111.533333 290.166667,108.8 288.1,106.4 C286.033333,104 283.266667,101.733333 279.8,99.6 C276.333333,97.4666667 272,95.1333333 266.8,92.6 C263.066667,90.7333333 260.166667,89.1333333 258.1,87.8 C256.033333,86.4666667 255,84.4666667 255,81.8 C255,79.8 255.466667,78.2 256.4,77 C257.333333,75.8 258.566667,74.8666667 260.1,74.2 C261.633333,73.5333333 263.3,73.1 265.1,72.9 C266.9,72.7 268.733333,72.6 270.6,72.6 C274.866667,72.6 279.2,73.2666667 283.6,74.6 C288,75.9333333 291.6,77.3333333 294.4,78.8 L294.4,78.8 L304.6,56.6 C301.133333,54.7333333 296.6,53 291,51.4 C285.4,49.8 279,49 271.8,49 C256.6,49 245.033333,52.1333333 237.1,58.4 C229.166667,64.6666667 225.2,73.2 225.2,84 C225.2,88.1333333 225.833333,91.7 227.1,94.7 C228.366667,97.7 230.1,100.366667 232.3,102.7 C234.5,105.033333 237.066667,107.033333 240,108.7 C242.933333,110.366667 246.066667,111.933333 249.4,113.4 C252.333333,114.733333 254.733333,115.9 256.6,116.9 C258.466667,117.9 259.933333,118.866667 261,119.8 C262.066667,120.733333 262.833333,121.733333 263.3,122.8 C263.766667,123.866667 264,125.133333 264,126.6 C264,128.866667 262.733333,130.966667 260.2,132.9 C257.666667,134.833333 253,135.8 246.2,135.8 C239.4,135.8 233.6,134.8 228.8,132.8 C224,130.8 220.466667,129.133333 218.2,127.8 L218.2,127.8 L208,150.6 C209.2,151.266667 210.9,152.133333 213.1,153.2 C215.3,154.266667 218,155.3 221.2,156.3 C224.4,157.3 228.1,158.133333 232.3,158.8 C236.5,159.466667 241.2,159.8 246.4,159.8 Z M351.8,159.8 C357.4,159.8 362.466667,158.8 367,156.8 C371.533333,154.8 375.666667,152.266667 379.4,149.2 C380.066667,151.066667 380.733333,152.733333 381.4,154.2 C382.066667,155.666667 382.8,157.2 383.6,158.8 L383.6,158.8 L410.2,155 C407.933333,149 406.4,142.166667 405.6,134.5 C404.8,126.833333 405.333333,119.2 407.2,111.6 L407.2,111.6 L420.2,57.2 C416.333333,55.3333333 412.266667,53.8666667 408,52.8 C403.733333,51.7333333 399.666667,50.9666667 395.8,50.5 C391.933333,50.0333333 388.5,49.7333333 385.5,49.6 C382.5,49.4666667 380.4,49.4 379.2,49.4 C370,49.4 361.466667,51.1333333 353.6,54.6 C345.733333,58.0666667 338.9,62.8333333 333.1,68.9 C327.3,74.9666667 322.766667,82.0666667 319.5,90.2 C316.233333,98.3333333 314.6,107 314.6,116.2 C314.6,122.2 315.266667,127.833333 316.6,133.1 C317.933333,138.366667 320.1,142.966667 323.1,146.9 C326.1,150.833333 329.966667,153.966667 334.7,156.3 C339.433333,158.633333 345.133333,159.8 351.8,159.8 Z M359.2,134.8 C353.466667,134.8 349.533333,132.933333 347.4,129.2 C345.266667,125.466667 344.2,120.4 344.2,114 C344.2,108.8 345.033333,103.8 346.7,99 C348.366667,94.2 350.666667,89.9666667 353.6,86.3 C356.533333,82.6333333 359.966667,79.6666667 363.9,77.4 C367.833333,75.1333333 372.066667,74 376.6,74 C378.6,74 380.3,74.0666667 381.7,74.2 C383.1,74.3333333 384.666667,74.5333333 386.4,74.8 L386.4,74.8 L378.6,106.4 C377.933333,109.466667 377.3,112.833333 376.7,116.5 C376.1,120.166667 375.666667,123.666667 375.4,127 C372.6,129.8 369.966667,131.8 367.5,133 C365.033333,134.2 362.266667,134.8 359.2,134.8 Z M467.4,159.4 C473.8,159.4 479.333333,158.866667 484,157.8 C488.666667,156.733333 493,155.466667 497,154 L497,154 L494.8,131.2 C491.733333,132.266667 488.7,133.1 485.7,133.7 C482.7,134.3 479.6,134.6 476.4,134.6 C472.666667,134.6 469.733333,134.066667 467.6,133 C465.466667,131.933333 463.966667,130.433333 463.1,128.5 C462.233333,126.566667 461.9,124.266667 462.1,121.6 C462.3,118.933333 462.8,116.066667 463.6,113 L463.6,113 L472.4,76.2 L505.4,76.2 L511.4,51.8 L478.2,51.8 L485.8,20.8 L454.8,25.6 L435.2,108.4 C433.6,115.2 432.666667,121.666667 432.4,127.8 C432.133333,133.933333 433.066667,139.366667 435.2,144.1 C437.333333,148.833333 440.933333,152.566667 446,155.3 C451.066667,158.033333 458.2,159.4 467.4,159.4 Z M523.8,159.6 C526.333333,159.6 528.8,159.1 531.2,158.1 C533.6,157.1 535.733333,155.7 537.6,153.9 C539.466667,152.1 540.966667,149.933333 542.1,147.4 C543.233333,144.866667 543.8,142.066667 543.8,139 C543.8,133.4 542.233333,129.3 539.1,126.7 C535.966667,124.1 532.066667,122.8 527.4,122.8 C524.866667,122.8 522.4,123.3 520,124.3 C517.6,125.3 515.466667,126.7 513.6,128.5 C511.733333,130.3 510.233333,132.466667 509.1,135 C507.966667,137.533333 507.4,140.333333 507.4,143.4 C507.4,149 508.966667,153.1 512.1,155.7 C515.233333,158.3 519.133333,159.6 523.8,159.6 Z M601,159.4 C607.4,159.4 612.933333,158.866667 617.6,157.8 C622.266667,156.733333 626.6,155.466667 630.6,154 L630.6,154 L628.4,131.2 C625.333333,132.266667 622.3,133.1 619.3,133.7 C616.3,134.3 613.2,134.6 610,134.6 C606.266667,134.6 603.333333,134.066667 601.2,133 C599.066667,131.933333 597.566667,130.433333 596.7,128.5 C595.833333,126.566667 595.5,124.266667 595.7,121.6 C595.9,118.933333 596.4,116.066667 597.2,113 L597.2,113 L606,76.2 L639,76.2 L645,51.8 L611.8,51.8 L619.4,20.8 L588.4,25.6 L568.8,108.4 C567.2,115.2 566.266667,121.666667 566,127.8 C565.733333,133.933333 566.666667,139.366667 568.8,144.1 C570.933333,148.833333 574.533333,152.566667 579.6,155.3 C584.666667,158.033333 591.8,159.4 601,159.4 Z M672.8,157 L692.2,76.2 C693.666667,75.8 695.533333,75.4333333 697.8,75.1 C700.066667,74.7666667 702.133333,74.6 704,74.6 C709.066667,74.6 712.9,74.9 715.5,75.5 C718.1,76.1 720.733333,76.7333333 723.4,77.4 L723.4,77.4 L732.2,53.4 C729.133333,52.0666667 725.566667,51.1 721.5,50.5 C717.433333,49.9 713.733333,49.6 710.4,49.6 C701.466667,49.6 693.433333,50.4333333 686.3,52.1 C679.166667,53.7666667 672.733333,55.5333333 667,57.4 L667,57.4 L643,157 L672.8,157 Z M771.4,159.8 C777,159.8 782.066667,158.8 786.6,156.8 C791.133333,154.8 795.266667,152.266667 799,149.2 C799.666667,151.066667 800.333333,152.733333 801,154.2 C801.666667,155.666667 802.4,157.2 803.2,158.8 L803.2,158.8 L829.8,155 C827.533333,149 826,142.166667 825.2,134.5 C824.4,126.833333 824.933333,119.2 826.8,111.6 L826.8,111.6 L839.8,57.2 C835.933333,55.3333333 831.866667,53.8666667 827.6,52.8 C823.333333,51.7333333 819.266667,50.9666667 815.4,50.5 C811.533333,50.0333333 808.1,49.7333333 805.1,49.6 C802.1,49.4666667 800,49.4 798.8,49.4 C789.6,49.4 781.066667,51.1333333 773.2,54.6 C765.333333,58.0666667 758.5,62.8333333 752.7,68.9 C746.9,74.9666667 742.366667,82.0666667 739.1,90.2 C735.833333,98.3333333 734.2,107 734.2,116.2 C734.2,122.2 734.866667,127.833333 736.2,133.1 C737.533333,138.366667 739.7,142.966667 742.7,146.9 C745.7,150.833333 749.566667,153.966667 754.3,156.3 C759.033333,158.633333 764.733333,159.8 771.4,159.8 Z M778.8,134.8 C773.066667,134.8 769.133333,132.933333 767,129.2 C764.866667,125.466667 763.8,120.4 763.8,114 C763.8,108.8 764.633333,103.8 766.3,99 C767.966667,94.2 770.266667,89.9666667 773.2,86.3 C776.133333,82.6333333 779.566667,79.6666667 783.5,77.4 C787.433333,75.1333333 791.666667,74 796.2,74 C798.2,74 799.9,74.0666667 801.3,74.2 C802.7,74.3333333 804.266667,74.5333333 806,74.8 L806,74.8 L798.2,106.4 C797.533333,109.466667 796.9,112.833333 796.3,116.5 C795.7,120.166667 795.266667,123.666667 795,127 C792.2,129.8 789.566667,131.8 787.1,133 C784.633333,134.2 781.866667,134.8 778.8,134.8 Z M889.2,159.8 C894.8,159.8 899.9,158.8 904.5,156.8 C909.1,154.8 913.266667,152.266667 917,149.2 C917.666667,151.066667 918.333333,152.733333 919,154.2 C919.666667,155.666667 920.4,157.2 921.2,158.8 L921.2,158.8 L947.8,155 C945.533333,149 944,142.166667 943.2,134.5 C942.4,126.833333 942.933333,119.2 944.8,111.6 L944.8,111.6 L971.2,1.8 L940.2,6.6 L929.4,51.8 C927.266667,51.2666667 925.166667,50.8666667 923.1,50.6 C921.033333,50.3333333 918.8,50.2 916.4,50.2 C907.066667,50.2 898.466667,51.9333333 890.6,55.4 C882.733333,58.8666667 875.933333,63.6 870.2,69.6 C864.466667,75.6 859.966667,82.6333333 856.7,90.7 C853.433333,98.7666667 851.8,107.333333 851.8,116.4 C851.8,122.4 852.5,128.033333 853.9,133.3 C855.3,138.566667 857.5,143.166667 860.5,147.1 C863.5,151.033333 867.366667,154.133333 872.1,156.4 C876.833333,158.666667 882.533333,159.8 889.2,159.8 Z M896.6,134.8 C890.866667,134.8 886.9,132.966667 884.7,129.3 C882.5,125.633333 881.4,120.6 881.4,114.2 C881.4,109.266667 882.2,104.433333 883.8,99.7 C885.4,94.9666667 887.633333,90.7333333 890.5,87 C893.366667,83.2666667 896.8,80.3 900.8,78.1 C904.8,75.9 909.133333,74.8 913.8,74.8 L913.8,74.8 L917.4,74.8 C918.333333,74.8 919.1,74.8333333 919.7,74.9 C920.3,74.9666667 920.9,75.0666667 921.5,75.2 C922.1,75.3333333 922.8,75.4666667 923.6,75.6 L923.6,75.6 L916.2,106.4 C915.533333,109.466667 914.9,112.833333 914.3,116.5 C913.7,120.166667 913.266667,123.666667 913,127 C910.2,129.8 907.533333,131.8 905,133 C902.466667,134.2 899.666667,134.8 896.6,134.8 Z M1007.8,39 C1010.6,39 1013.23333,38.4666667 1015.7,37.4 C1018.16667,36.3333333 1020.33333,34.9 1022.2,33.1 C1024.06667,31.3 1025.56667,29.1666667 1026.7,26.7 C1027.83333,24.2333333 1028.4,21.6 1028.4,18.8 C1028.4,13.7333333 1026.73333,9.96666667 1023.4,7.5 C1020.06667,5.03333333 1016.33333,3.8 1012.2,3.8 C1009.4,3.8 1006.76667,4.33333333 1004.3,5.4 C1001.83333,6.46666667 999.666667,7.9 997.8,9.7 C995.933333,11.5 994.433333,13.6333333 993.3,16.1 C992.166667,18.5666667 991.6,21.2 991.6,24 C991.6,29.0666667 993.266667,32.8333333 996.6,35.3 C999.933333,37.7666667 1003.66667,39 1007.8,39 Z M993.4,157 L1018.6,51.8 L988.8,51.8 L963.8,157 L993.4,157 Z M1050.2,157 L1069.6,75.6 C1073.6,74.8 1077.53333,74.4 1081.4,74.4 C1085.4,74.4 1088.36667,75.1666667 1090.3,76.7 C1092.23333,78.2333333 1093.46667,80.2333333 1094,82.7 C1094.53333,85.1666667 1094.56667,88.0333333 1094.1,91.3 C1093.63333,94.5666667 1093,97.9333333 1092.2,101.4 L1092.2,101.4 L1079,157 L1108.8,157 L1122.4,100.2 C1126.26667,84.4666667 1125.26667,72.0666667 1119.4,63 C1113.53333,53.9333333 1102.73333,49.4 1087,49.4 C1081.66667,49.4 1076.9,49.6333333 1072.7,50.1 C1068.5,50.5666667 1064.7,51.1666667 1061.3,51.9 C1057.9,52.6333333 1054.83333,53.4333333 1052.1,54.3 C1049.36667,55.1666667 1046.86667,55.9333333 1044.6,56.6 L1044.6,56.6 L1020.4,157 L1050.2,157 Z M1163.2,194.6 C1172.26667,194.6 1180.2,193.566667 1187,191.5 C1193.8,189.433333 1199.63333,186.3 1204.5,182.1 C1209.36667,177.9 1213.43333,172.633333 1216.7,166.3 C1219.96667,159.966667 1222.6,152.466667 1224.6,143.8 L1224.6,143.8 L1245.2,57.2 C1239.2,54.4 1233.06667,52.3333333 1226.8,51 C1220.53333,49.6666667 1214.2,49 1207.8,49 C1199,49 1190.56667,50.3333333 1182.5,53 C1174.43333,55.6666667 1167.3,59.6 1161.1,64.8 C1154.9,70 1149.93333,76.5 1146.2,84.3 C1142.46667,92.1 1140.6,101.066667 1140.6,111.2 C1140.6,116.8 1141.3,121.966667 1142.7,126.7 C1144.1,131.433333 1146.23333,135.533333 1149.1,139 C1151.96667,142.466667 1155.66667,145.166667 1160.2,147.1 C1164.73333,149.033333 1170.13333,150 1176.4,150 C1179.73333,150 1182.9,149.6 1185.9,148.8 C1188.9,148 1191.73333,146.933333 1194.4,145.6 L1194.4,145.6 L1193.6,149.4 C1192.26667,155.4 1189.43333,160.3 1185.1,164.1 C1180.76667,167.9 1174.33333,169.8 1165.8,169.8 C1159.26667,169.8 1153.76667,169.133333 1149.3,167.8 C1144.83333,166.466667 1140.53333,164.866667 1136.4,163 L1136.4,163 L1126.4,186.6 C1131.06667,188.866667 1136.26667,190.766667 1142,192.3 C1147.73333,193.833333 1154.8,194.6 1163.2,194.6 Z M1184.4,126.2 C1181.6,126.2 1179.26667,125.733333 1177.4,124.8 C1175.53333,123.866667 1174.06667,122.633333 1173,121.1 C1171.93333,119.566667 1171.2,117.766667 1170.8,115.7 C1170.4,113.633333 1170.2,111.4 1170.2,109 C1170.2,104.066667 1170.96667,99.4333333 1172.5,95.1 C1174.03333,90.7666667 1176.23333,87.0666667 1179.1,84 C1181.96667,80.9333333 1185.4,78.5 1189.4,76.7 C1193.4,74.9 1197.93333,74 1203,74 C1206.33333,74 1209.13333,74.2666667 1211.4,74.8 L1211.4,74.8 L1200.4,120.6 C1197.86667,123 1195.03333,124.533333 1191.9,125.2 C1188.76667,125.866667 1186.26667,126.2 1184.4,126.2 Z" id="sat.trading" fill="#ECECEE"></path>
                <g id="bitcoinLogo">
                    <path d="M192.081627,121.086445 C179.057896,173.318494 126.14937,205.106218 73.905134,192.080959 C21.6822282,179.058748 -10.1092047,126.153347 2.92062059,73.924346 C15.9382571,21.6862042 68.8467828,-10.1045669 121.075783,2.91764471 C173.316972,15.9398563 205.105358,68.8513506 192.081627,121.086445 Z" id="coin" fill="url(#linearGradient-1)"></path>
                    <path d="M139.756943,84.8503072 C141.692037,71.8208672 131.843409,64.8165486 118.376732,60.1439429 L122.745124,42.493917 L112.079321,39.8164252 L107.826366,57.0013326 C105.022454,56.2975347 102.142596,55.6335168 99.280965,54.9756188 L103.564298,37.6774918 L92.9045707,35 L88.5331408,52.6439059 C86.2122426,52.1114676 83.933874,51.5851492 81.7223376,51.0312909 L81.7344889,50.976211 L67.0253411,47.2766824 L64.1880128,58.7516472 C64.1880128,58.7516472 72.1015464,60.5784616 71.934466,60.6916813 C76.2542529,61.7779779 77.0349739,64.6574291 76.9043474,66.9401821 C64.9353177,115.291094 76.9043474,66.9401821 64.9353177,115.291094 C64.4067362,116.61301 63.0670554,118.595884 60.0474576,117.843126 C60.1537814,117.999186 52.2949286,115.893912 52.2949286,115.893912 L47,128.192014 L60.8798216,131.677344 C63.4619726,132.329122 65.9924807,133.0115 68.483497,133.654098 L64.0695376,151.506083 L74.7231892,154.183575 L79.0946191,136.521309 C82.0048553,137.316906 84.8300323,138.051304 87.5944529,138.742862 L83.2382121,156.322508 L93.904015,159 L98.3179745,141.181675 C116.505432,144.648644 130.181719,143.250228 135.938397,126.680379 C140.577155,113.33882 135.707522,105.642944 126.138374,100.624559 C133.107144,99.0058239 138.356505,94.388298 139.756943,84.8503072 L139.756943,84.8503072 Z M115.387512,119.272142 C112.091472,132.613701 89.7908003,125.401303 82.5607772,123.592849 L88.4177034,99.942181 C95.6477265,101.759815 118.832405,105.358364 115.387512,119.272142 Z M118.68659,84.6575278 C115.679143,96.7934506 97.1180337,90.6275695 91.0970649,89.1159342 L96.4071827,67.6653999 C102.428151,69.1770353 121.818587,71.9983466 118.68659,84.6575278 L118.68659,84.6575278 Z" id="symbol" fill="#FFFFFF"></path>
                </g>
            </g>
        </g>
    </g>
</svg>