<?xml version="1.0" standalone="no"?>
<!DOCTYPE svg PUBLIC "-//W3C//DTD SVG 20010904//EN"
 "http://www.w3.org/TR/2001/REC-SVG-20010904/DTD/svg10.dtd">
<svg version="1.0" xmlns="http://www.w3.org/2000/svg"
 width="700.000000pt" height="700.000000pt" viewBox="0 0 700.000000 700.000000"
 preserveAspectRatio="xMidYMid meet">
<metadata>
Created by potrace 1.11, written by Peter Selinger 2001-2013
</metadata>
<g transform="translate(0.000000,700.000000) scale(0.100000,-0.100000)"
fill="#000000" stroke="none">
<path d="M3300 6994 c-571 -49 -977 -163 -1439 -405 -318 -166 -607 -383 -871
-655 -270 -277 -458 -545 -630 -895 -601 -1224 -436 -2679 424 -3744 111 -137
328 -358 466 -474 609 -510 1347 -791 2150 -817 968 -33 1921 354 2605 1057
270 278 451 533 625 884 252 508 364 990 364 1560 0 571 -118 1064 -374 1570
-184 364 -393 649 -681 930 -279 272 -562 470 -914 641 -362 175 -724 280
-1135 330 -120 14 -497 26 -590 18z m249 -1260 c102 -25 187 -47 189 -48 1 -2
-31 -139 -73 -304 -41 -166 -75 -305 -75 -309 0 -12 291 -76 300 -66 4 4 40
141 80 303 40 162 74 296 75 298 3 4 370 -89 377 -96 4 -4 -28 -147 -71 -319
l-78 -311 73 -27 c380 -134 625 -347 689 -600 46 -179 -11 -446 -127 -600 -65
-85 -173 -162 -278 -197 l-73 -24 49 -29 c251 -146 376 -358 360 -610 -10
-168 -78 -372 -171 -516 -201 -312 -547 -407 -1133 -313 -56 10 -105 14 -108
11 -3 -3 -41 -144 -83 -314 -57 -226 -81 -308 -92 -307 -41 3 -369 88 -369 96
0 4 34 144 75 310 42 165 73 303 70 307 -12 11 -290 80 -296 73 -4 -4 -40
-141 -80 -305 -41 -165 -76 -303 -79 -307 -4 -7 -366 75 -379 86 -2 2 31 141
73 309 42 167 76 311 76 318 0 10 -104 40 -347 101 -192 48 -364 91 -384 97
l-37 9 94 217 c52 119 96 218 97 219 2 2 63 -13 137 -32 145 -38 212 -45 247
-26 59 32 62 41 289 955 213 855 218 878 206 924 -28 102 -78 133 -305 189
-122 30 -147 39 -143 53 3 9 26 100 52 204 25 103 51 187 56 187 6 0 179 -43
386 -95 207 -52 377 -95 378 -95 1 0 37 142 80 315 43 173 81 315 83 315 2 0
88 -21 190 -46z"/>
<path d="M3390 4238 c-51 -205 -93 -377 -94 -382 -1 -12 211 -68 345 -92 123
-22 316 -23 392 -2 163 45 246 150 255 321 4 83 3 91 -27 152 -82 166 -311
279 -747 370 l-31 6 -93 -373z"/>
<path d="M3090 3040 c-57 -230 -102 -421 -99 -424 9 -10 274 -75 391 -97 66
-12 176 -23 263 -26 132 -5 161 -3 234 16 46 11 103 32 126 46 128 75 198 244
160 390 -56 215 -313 364 -825 480 -63 14 -122 28 -130 30 -13 4 -35 -74 -120
-415z"/>
</g>
</svg>
