<?xml version="1.0" standalone="no"?>
<!DOCTYPE svg PUBLIC "-//W3C//DTD SVG 20010904//EN"
 "http://www.w3.org/TR/2001/REC-SVG-20010904/DTD/svg10.dtd">
<svg version="1.0" xmlns="http://www.w3.org/2000/svg"
 width="700.000000pt" height="700.000000pt" viewBox="0 0 700.000000 700.000000"
 preserveAspectRatio="xMidYMid meet">
<metadata>
Created by potrace 1.11, written by Peter Selinger 2001-2013
</metadata>
<g transform="translate(0.000000,700.000000) scale(0.100000,-0.100000)"
fill="#000000" stroke="none">
<path d="M3278 6995 c-2 -1 -41 -5 -88 -9 -87 -7 -105 -9 -225 -27 -116 -18
-123 -19 -192 -35 -184 -42 -248 -59 -369 -99 -264 -88 -538 -216 -759 -356
-346 -217 -655 -497 -910 -824 -238 -304 -432 -668 -559 -1047 -31 -94 -79
-267 -91 -329 -3 -13 -11 -58 -20 -99 -29 -147 -36 -199 -52 -370 -15 -160 -7
-607 12 -708 1 -9 6 -42 9 -73 4 -31 9 -67 11 -80 3 -13 7 -39 10 -58 2 -18 7
-41 9 -50 3 -9 8 -29 11 -46 8 -47 12 -65 35 -155 21 -85 73 -257 89 -295 5
-11 26 -65 46 -120 113 -297 319 -652 527 -907 51 -62 102 -123 113 -134 262
-277 425 -418 665 -578 273 -182 523 -308 815 -409 91 -31 337 -98 409 -111
16 -3 52 -10 80 -15 120 -24 223 -39 335 -49 168 -14 614 -7 731 12 14 3 48 8
75 11 101 14 124 18 255 46 186 40 549 155 595 189 6 4 21 11 35 15 44 13 232
106 350 173 199 113 427 276 589 421 170 152 328 322 464 501 146 191 274 401
380 623 26 53 47 99 47 102 0 2 11 28 24 57 57 127 151 421 182 573 17 81 54
301 59 350 4 33 9 71 11 85 9 47 11 525 4 605 -13 130 -21 202 -25 227 -3 13
-8 43 -11 68 -9 67 -70 335 -94 412 -11 37 -21 70 -21 73 0 2 -16 49 -35 102
-222 615 -578 1125 -1074 1541 -66 56 -304 230 -351 257 -235 137 -500 275
-527 275 -4 0 -26 8 -48 19 -96 46 -391 136 -562 172 -54 11 -106 22 -117 25
-11 2 -38 6 -60 9 -22 3 -51 7 -65 10 -13 2 -52 7 -86 11 -33 3 -74 8 -90 10
-32 5 -540 14 -546 9z"/>
</g>
</svg>
